<svg id="Layer_1" enable-background="new 0 0 64 64" height="512" viewBox="0 0 64 64" width="512" xmlns="http://www.w3.org/2000/svg"><path d="m27 40-7 16h24l-7-16c-.403.021-9.597.021-10 0z" fill="#ffb56d"/><circle cx="32" cy="13" fill="#b6ccc8" r="2"/><path d="m52 36h-40c-2.209 0-4-1.791-4-4 0-2.209 1.791-4 4-4h40c2.209 0 4 1.791 4 4 0 2.209-1.791 4-4 4z" fill="#cadfdc"/><path d="m12 36c3.842 3.842 9.052 6 14.485 6h11.029c5.433 0 10.644-2.158 14.485-6z" fill="#e3edec"/><path d="m37.515 22h-11.03c-5.433 0-10.643 2.158-14.485 6h40c-3.842-3.842-9.052-6-14.485-6z" fill="#a0ceff"/><path d="m52 28h-10c-3.84-3.84-9.05-6-14.49-6h10c5.44 0 10.65 2.16 14.49 6z" fill="#b3d8ff"/><path d="m35 19h-6c-1.657 0-3 1.343-3 3h12c0-1.657-1.343-3-3-3z" fill="#e3edec"/><circle cx="32" cy="47" fill="#ffd580" r="3"/><g fill="#b6ccc8"><path d="m16 34c-1.105 0-2-.895-2-2 0-1.105.895-2 2-2 1.105 0 2 .895 2 2 0 1.105-.895 2-2 2z"/><path d="m24 34c-1.105 0-2-.895-2-2 0-1.105.895-2 2-2 1.105 0 2 .895 2 2 0 1.105-.895 2-2 2z"/><path d="m32 34c-1.105 0-2-.895-2-2 0-1.105.895-2 2-2 1.105 0 2 .895 2 2 0 1.105-.895 2-2 2z"/><path d="m40 34c-1.105 0-2-.895-2-2 0-1.105.895-2 2-2 1.105 0 2 .895 2 2 0 1.105-.895 2-2 2z"/><path d="m48 34c-1.105 0-2-.895-2-2 0-1.105.895-2 2-2 1.105 0 2 .895 2 2 0 1.105-.895 2-2 2z"/></g><path d="m52.216 27.522c-3.723-3.66-8.573-5.748-13.762-5.976-.225-1.714-1.68-3.046-3.454-3.046h-2.5v-1.5c0-.276-.224-.5-.5-.5s-.5.224-.5.5v1.5h-2.5c-1.774 0-3.229 1.332-3.454 3.046-5.189.228-10.039 2.317-13.762 5.976-2.379.115-4.284 2.071-4.284 4.478s1.905 4.363 4.284 4.478c3.948 3.881 9.158 6.022 14.701 6.022h11.029c5.543 0 10.753-2.141 14.701-6.022 2.38-.115 4.285-2.071 4.285-4.478s-1.905-4.363-4.284-4.478zm-36.235-2.022h26.019c.276 0 .5-.224.5-.5s-.224-.5-.5-.5h-24.2c2.677-1.295 5.624-2 8.685-2h11.029c4.911 0 9.541 1.778 13.191 5h-37.411c.846-.747 1.743-1.414 2.687-2zm13.019-6h6c1.208 0 2.217.86 2.449 2h-10.898c.232-1.14 1.241-2 2.449-2zm-2.515 22c-4.911 0-9.541-1.778-13.191-5h37.411c-3.65 3.222-8.28 5-13.191 5zm25.515-6h-40c-1.93 0-3.5-1.57-3.5-3.5s1.57-3.5 3.5-3.5h40c1.93 0 3.5 1.57 3.5 3.5s-1.57 3.5-3.5 3.5z"/><path d="m29.5 13c0 1.378 1.121 2.5 2.5 2.5s2.5-1.122 2.5-2.5-1.121-2.5-2.5-2.5-2.5 1.122-2.5 2.5zm4 0c0 .827-.673 1.5-1.5 1.5s-1.5-.673-1.5-1.5.673-1.5 1.5-1.5 1.5.673 1.5 1.5z"/><path d="m39 18.5c.128 0 .256-.049.354-.146 1.324-1.324 2.146-3.375 2.146-5.354s-.822-4.03-2.146-5.354c-.195-.195-.512-.195-.707 0s-.195.512 0 .707c1.125 1.126 1.853 2.95 1.853 4.647s-.728 3.521-1.854 4.646c-.195.195-.195.512 0 .707.098.098.226.147.354.147z"/><path d="m36.646 15.354c.098.097.226.146.354.146s.256-.049.354-.146c.428-.429 1.146-1.147 1.146-2.354s-.718-1.925-1.146-2.354c-.195-.195-.512-.195-.707 0s-.195.512 0 .707c.36.36.854.854.854 1.646s-.493 1.286-.854 1.646c-.196.197-.196.513-.001.709z"/><path d="m25.354 7.646c-.195-.195-.512-.195-.707 0-1.325 1.324-2.147 3.375-2.147 5.354s.822 4.03 2.146 5.354c.098.097.226.146.354.146s.256-.049.354-.146c.195-.195.195-.512 0-.707-1.126-1.126-1.854-2.95-1.854-4.647s.728-3.521 1.854-4.646c.195-.196.195-.512 0-.708z"/><path d="m27.354 10.646c-.195-.195-.512-.195-.707 0-.429.429-1.147 1.147-1.147 2.354s.718 1.925 1.146 2.354c.098.097.226.146.354.146s.256-.049.354-.146c.195-.195.195-.512 0-.707-.361-.361-.854-.854-.854-1.647s.493-1.286.854-1.646c.195-.196.195-.512 0-.708z"/><path d="m25.34 43.541c-.253-.11-.548.007-.657.263l-5.143 12c-.108.253.009.547.263.656.064.027.131.04.197.04.193 0 .378-.113.46-.303l5.143-12c.108-.254-.009-.548-.263-.656z"/><path d="m44 56.5c.066 0 .133-.013.197-.041.254-.109.371-.403.263-.656l-5.143-12c-.11-.255-.404-.372-.657-.263-.254.109-.371.403-.263.656l5.143 12c.082.191.267.304.46.304z"/><path d="m35.5 47c0-1.93-1.57-3.5-3.5-3.5s-3.5 1.57-3.5 3.5 1.57 3.5 3.5 3.5 3.5-1.57 3.5-3.5zm-3.5 2.5c-1.379 0-2.5-1.122-2.5-2.5s1.121-2.5 2.5-2.5 2.5 1.122 2.5 2.5-1.121 2.5-2.5 2.5z"/><circle cx="27" cy="53" r="1"/><circle cx="38" cy="50" r="1"/><path d="m16 29.5c-1.379 0-2.5 1.122-2.5 2.5s1.121 2.5 2.5 2.5 2.5-1.122 2.5-2.5-1.121-2.5-2.5-2.5zm0 4c-.827 0-1.5-.673-1.5-1.5s.673-1.5 1.5-1.5 1.5.673 1.5 1.5-.673 1.5-1.5 1.5z"/><path d="m24 29.5c-1.379 0-2.5 1.122-2.5 2.5s1.121 2.5 2.5 2.5 2.5-1.122 2.5-2.5-1.121-2.5-2.5-2.5zm0 4c-.827 0-1.5-.673-1.5-1.5s.673-1.5 1.5-1.5 1.5.673 1.5 1.5-.673 1.5-1.5 1.5z"/><path d="m32 29.5c-1.379 0-2.5 1.122-2.5 2.5s1.121 2.5 2.5 2.5 2.5-1.122 2.5-2.5-1.121-2.5-2.5-2.5zm0 4c-.827 0-1.5-.673-1.5-1.5s.673-1.5 1.5-1.5 1.5.673 1.5 1.5-.673 1.5-1.5 1.5z"/><path d="m40 29.5c-1.379 0-2.5 1.122-2.5 2.5s1.121 2.5 2.5 2.5 2.5-1.122 2.5-2.5-1.121-2.5-2.5-2.5zm0 4c-.827 0-1.5-.673-1.5-1.5s.673-1.5 1.5-1.5 1.5.673 1.5 1.5-.673 1.5-1.5 1.5z"/><path d="m48 29.5c-1.379 0-2.5 1.122-2.5 2.5s1.121 2.5 2.5 2.5 2.5-1.122 2.5-2.5-1.121-2.5-2.5-2.5zm0 4c-.827 0-1.5-.673-1.5-1.5s.673-1.5 1.5-1.5 1.5.673 1.5 1.5-.673 1.5-1.5 1.5z"/></svg>